{
  "accessors": [
    {
      "bufferView": 2,
      "componentType": 5126,
      "count": 4680,
      "max": [
        5.330749034881592,
        6.363778114318848,
        21.203079223632813
      ],
      "min": [
        -5.413282871246338,
        -3.1715269088745117,
        10.178380012512207
      ],
      "type": "VEC3"
    },
    {
      "bufferView": 2,
      "byteOffset": 56160,
      "componentType": 5126,
      "count": 4680,
      "max": [
        0.9972907304763794,
        0.9999997019767761,
        0.9990648031234741
      ],
      "min": [
        -0.9980890154838562,
        -0.9999293684959412,
        -0.9999805688858032
      ],
      "type": "VEC3"
    },
    {
      "bufferView": 1,
      "componentType": 5126,
      "count": 4680,
      "max": [
        0.6428850293159485,
        0.9090070128440857
      ],
      "min": [
        0.01903500035405159,
        0.003907979000359774
      ],
      "type": "VEC2"
    },
    {
      "bufferView": 0,
      "componentType": 5125,
      "count": 24960,
      "type": "SCALAR"
    },
    {
      "bufferView": 2,
      "byteOffset": 112320,
      "componentType": 5126,
      "count": 1980,
      "max": [
        3.6479310989379883,
        2.4990758895874023,
        26.16223907470703
      ],
      "min": [
        -2.9748740196228027,
        -1.6574620008468628,
        20.782699584960938
      ],
      "type": "VEC3"
    },
    {
      "bufferView": 2,
      "byteOffset": 136080,
      "componentType": 5126,
      "count": 1980,
      "max": [
        0.9992918372154236,
        0.9998927116394043,
        0.9995256662368774
      ],
      "min": [
        -0.998520016670227,
        -0.9998862147331238,
        -0.9997682571411133
      ],
      "type": "VEC3"
    },
    {
      "bufferView": 1,
      "byteOffset": 37440,
      "componentType": 5126,
      "count": 1980,
      "max": [
        0.92671799659729,
        0.9752830266952515
      ],
      "min": [
        0.06756599992513657,
        0.5867050290107727
      ],
      "type": "VEC2"
    },
    {
      "bufferView": 0,
      "byteOffset": 99840,
      "componentType": 5125,
      "count": 9018,
      "type": "SCALAR"
    },
    {
      "bufferView": 2,
      "byteOffset": 159840,
      "componentType": 5126,
      "count": 4,
      "max": [
        20.679800033569336,
        14.683159828186035,
        -4.768372150465439e-07
      ],
      "min": [
        -20.6798095703125,
        -26.676450729370117,
        -4.768372150465439e-07
      ],
      "type": "VEC3"
    },
    {
      "bufferView": 2,
      "byteOffset": 159888,
      "componentType": 5126,
      "count": 4,
      "max": [
        0.0,
        -0.0,
        1.0
      ],
      "min": [
        0.0,
        -0.0,
        1.0
      ],
      "type": "VEC3"
    },
    {
      "bufferView": 1,
      "byteOffset": 53280,
      "componentType": 5126,
      "count": 4,
      "max": [
        1.0,
        1.0
      ],
      "min": [
        0.0,
        0.0
      ],
      "type": "VEC2"
    },
    {
      "bufferView": 0,
      "byteOffset": 135912,
      "componentType": 5125,
      "count": 6,
      "type": "SCALAR"
    },
    {
      "bufferView": 2,
      "byteOffset": 159936,
      "componentType": 5126,
      "count": 2271,
      "max": [
        2.2284340858459473,
        4.930462837219238,
        14.311070442199707
      ],
      "min": [
        -2.2284340858459473,
        0.8401135802268982,
        9.806811332702637
      ],
      "type": "VEC3"
    },
    {
      "bufferView": 2,
      "byteOffset": 187188,
      "componentType": 5126,
      "count": 2271,
      "max": [
        0.9999760985374451,
        0.9930844902992249,
        0.9711170792579651
      ],
      "min": [
        -0.9999760985374451,
        -0.9995230436325073,
        -0.9970492720603943
      ],
      "type": "VEC3"
    },
    {
      "bufferView": 1,
      "byteOffset": 53312,
      "componentType": 5126,
      "count": 2271,
      "max": [
        0.5114269852638245,
        0.402521014213562
      ],
      "min": [
        0.04662699997425079,
        0.1275169998407364
      ],
      "type": "VEC2"
    },
    {
      "bufferView": 0,
      "byteOffset": 135936,
      "componentType": 5125,
      "count": 11580,
      "type": "SCALAR"
    },
    {
      "bufferView": 2,
      "byteOffset": 214440,
      "componentType": 5126,
      "count": 1710,
      "max": [
        4.2334089279174805,
        5.321445941925049,
        25.003110885620117
      ],
      "min": [
        -4.788070201873779,
        0.6201047897338867,
        10.898150444030762
      ],
      "type": "VEC3"
    },
    {
      "bufferView": 2,
      "byteOffset": 234960,
      "componentType": 5126,
      "count": 1710,
      "max": [
        0.9979186058044434,
        0.9998195171356201,
        0.9979915022850037
      ],
      "min": [
        -0.9984411001205444,
        -0.9989085793495178,
        -0.9995013475418091
      ],
      "type": "VEC3"
    },
    {
      "bufferView": 1,
      "byteOffset": 71480,
      "componentType": 5126,
      "count": 1710,
      "max": [
        0.9101830124855042,
        0.7451170086860657
      ],
      "min": [
        0.054510001093149185,
        0.16230200231075287
      ],
      "type": "VEC2"
    },
    {
      "bufferView": 0,
      "byteOffset": 182256,
      "componentType": 5125,
      "count": 6396,
      "type": "SCALAR"
    },
    {
      "bufferView": 2,
      "byteOffset": 255480,
      "componentType": 5126,
      "count": 3257,
      "max": [
        2.1404941082000732,
        3.257528066635132,
        21.39236068725586
      ],
      "min": [
        -2.1403870582580566,
        -0.9761648178100586,
        18.15962028503418
      ],
      "type": "VEC3"
    },
    {
      "bufferView": 2,
      "byteOffset": 294564,
      "componentType": 5126,
      "count": 3257,
      "max": [
        0.9957783818244934,
        0.9996836185455322,
        0.9993038773536682
      ],
      "min": [
        -0.9960698485374451,
        -0.9998070597648621,
        -0.9990255832672119
      ],
      "type": "VEC3"
    },
    {
      "bufferView": 1,
      "byteOffset": 85160,
      "componentType": 5126,
      "count": 3257,
      "max": [
        0.07353299856185913,
        0.9685279726982117
      ],
      "min": [
        0.07083500176668167,
        0.9658420085906982
      ],
      "type": "VEC2"
    },
    {
      "bufferView": 0,
      "byteOffset": 207840,
      "componentType": 5125,
      "count": 7788,
      "type": "SCALAR"
    },
    {
      "bufferView": 2,
      "byteOffset": 333648,
      "componentType": 5126,
      "count": 2878,
      "max": [
        2.705457925796509,
        -2.5345330238342285,
        17.735929489135742
      ],
      "min": [
        -4.5331950187683105,
        -9.907613754272461,
        13.572150230407715
      ],
      "type": "VEC3"
    },
    {
      "bufferView": 2,
      "byteOffset": 368184,
      "componentType": 5126,
      "count": 2878,
      "max": [
        0.9998876452445984,
        0.999765932559967,
        0.999945342540741
      ],
      "min": [
        -0.9996134638786316,
        -0.9993653893470764,
        -0.9994767308235168
      ],
      "type": "VEC3"
    },
    {
      "bufferView": 1,
      "byteOffset": 111216,
      "componentType": 5126,
      "count": 2878,
      "max": [
        0.0746849998831749,
        0.9475039839744568
      ],
      "min": [
        0.0693809986114502,
        0.9214310050010681
      ],
      "type": "VEC2"
    },
    {
      "bufferView": 0,
      "byteOffset": 238992,
      "componentType": 5125,
      "count": 14328,
      "type": "SCALAR"
    },
    {
      "bufferView": 2,
      "byteOffset": 402720,
      "componentType": 5126,
      "count": 3062,
      "max": [
        6.140631198883057,
        9.642362594604492,
        20.82526969909668
      ],
      "min": [
        -5.865149021148682,
        8.119211196899414,
        0.011688949540257454
      ],
      "type": "VEC3"
    },
    {
      "bufferView": 2,
      "byteOffset": 439464,
      "componentType": 5126,
      "count": 3062,
      "max": [
        1.0,
        1.0,
        0.999992311000824
      ],
      "min": [
        -1.0,
        -1.0,
        -1.0
      ],
      "type": "VEC3"
    },
    {
      "bufferView": 1,
      "byteOffset": 134240,
      "componentType": 5126,
      "count": 3062,
      "max": [
        0.9197850227355957,
        0.6618452072143555
      ],
      "min": [
        0.2524675130844116,
        0.0009152889251708984
      ],
      "type": "VEC2"
    },
    {
      "bufferView": 0,
      "byteOffset": 296304,
      "componentType": 5125,
      "count": 15072,
      "type": "SCALAR"
    },
    {
      "bufferView": 2,
      "byteOffset": 476208,
      "componentType": 5126,
      "count": 6407,
      "max": [
        6.571160793304443,
        9.131622314453125,
        20.44676971435547
      ],
      "min": [
        -6.295684814453125,
        -3.2955191135406494,
        0.02353787049651146
      ],
      "type": "VEC3"
    },
    {
      "bufferView": 2,
      "byteOffset": 553092,
      "componentType": 5126,
      "count": 6407,
      "max": [
        1.0,
        1.0,
        1.0
      ],
      "min": [
        -1.0,
        -1.0,
        -1.0
      ],
      "type": "VEC3"
    },
    {
      "bufferView": 1,
      "byteOffset": 158736,
      "componentType": 5126,
      "count": 6407,
      "max": [
        0.9871994853019714,
        0.9997661709785461
      ],
      "min": [
        0.0015753050101920962,
        0.0008299350738525391
      ],
      "type": "VEC2"
    },
    {
      "bufferView": 0,
      "byteOffset": 356592,
      "componentType": 5125,
      "count": 35016,
      "type": "SCALAR"
    },
    {
      "bufferView": 2,
      "byteOffset": 629976,
      "componentType": 5126,
      "count": 17364,
      "max": [
        4.534884929656982,
        5.608737945556641,
        21.358190536499023
      ],
      "min": [
        -5.089046001434326,
        -6.884357929229736,
        1.6581569910049438
      ],
      "type": "VEC3"
    },
    {
      "bufferView": 2,
      "byteOffset": 838344,
      "componentType": 5126,
      "count": 17364,
      "max": [
        1.0,
        0.9999272227287292,
        0.9999792575836182
      ],
      "min": [
        -1.0,
        -0.9999557137489319,
        -0.9999542832374573
      ],
      "type": "VEC3"
    },
    {
      "bufferView": 1,
      "byteOffset": 209992,
      "componentType": 5126,
      "count": 17364,
      "max": [
        0.9942975044250488,
        0.9748032093048096
      ],
      "min": [
        0.007285894826054573,
        3.8266178307821974e-05
      ],
      "type": "VEC2"
    },
    {
      "bufferView": 0,
      "byteOffset": 496656,
      "componentType": 5125,
      "count": 79767,
      "type": "SCALAR"
    },
    {
      "bufferView": 2,
      "byteOffset": 1046712,
      "componentType": 5126,
      "count": 253,
      "max": [
        1.1423439979553223,
        1.8729280233383179,
        22.398799896240234
      ],
      "min": [
        -1.1852869987487793,
        0.0632023811340332,
        20.826509475708008
      ],
      "type": "VEC3"
    },
    {
      "bufferView": 2,
      "byteOffset": 1049748,
      "componentType": 5126,
      "count": 253,
      "max": [
        0.9930509924888611,
        0.9999989867210388,
        0.2611955404281616
      ],
      "min": [
        -0.9902217388153076,
        -0.9182994961738586,
        -0.7526987195014954
      ],
      "type": "VEC3"
    },
    {
      "bufferView": 1,
      "byteOffset": 348904,
      "componentType": 5126,
      "count": 253,
      "max": [
        0.9184216856956482,
        0.9945089221000671
      ],
      "min": [
        0.003490227973088622,
        0.014957009814679623
      ],
      "type": "VEC2"
    },
    {
      "bufferView": 0,
      "byteOffset": 815724,
      "componentType": 5125,
      "count": 885,
      "type": "SCALAR"
    },
    {
      "bufferView": 2,
      "byteOffset": 1052784,
      "componentType": 5126,
      "count": 9330,
      "max": [
        16.00979995727539,
        -2.721273899078369,
        13.73501968383789
      ],
      "min": [
        -16.067920684814453,
        -18.530370712280273,
        -0.21380619704723358
      ],
      "type": "VEC3"
    },
    {
      "bufferView": 2,
      "byteOffset": 1164744,
      "componentType": 5126,
      "count": 9330,
      "max": [
        1.0,
        1.0,
        1.0
      ],
      "min": [
        -1.0,
        -1.0,
        -1.0
      ],
      "type": "VEC3"
    },
    {
      "bufferView": 1,
      "byteOffset": 350928,
      "componentType": 5126,
      "count": 9330,
      "max": [
        0.9686725735664368,
        0.9912989735603333
      ],
      "min": [
        0.2489366978406906,
        0.722034215927124
      ],
      "type": "VEC2"
    },
    {
      "bufferView": 0,
      "byteOffset": 819264,
      "componentType": 5125,
      "count": 50688,
      "type": "SCALAR"
    },
    {
      "bufferView": 2,
      "byteOffset": 1276704,
      "componentType": 5126,
      "count": 4257,
      "max": [
        16.916500091552734,
        -2.2936179637908936,
        14.862409591674805
      ],
      "min": [
        -16.974489212036133,
        -18.958059310913086,
        -0.21376609802246094
      ],
      "type": "VEC3"
    },
    {
      "bufferView": 2,
      "byteOffset": 1327788,
      "componentType": 5126,
      "count": 4257,
      "max": [
        1.0,
        1.0,
        1.0
      ],
      "min": [
        -1.0,
        -1.0,
        -1.0
      ],
      "type": "VEC3"
    },
    {
      "bufferView": 1,
      "byteOffset": 425568,
      "componentType": 5126,
      "count": 4257,
      "max": [
        0.9839472770690918,
        0.9912989735603333
      ],
      "min": [
        0.028730040416121483,
        0.012323860079050064
      ],
      "type": "VEC2"
    },
    {
      "bufferView": 0,
      "byteOffset": 1022016,
      "componentType": 5125,
      "count": 22416,
      "type": "SCALAR"
    }
  ],
  "asset": {
    "extras": {
      "author": "😸 New cat Heracles 😺 and 🌙 new LunaMoonPink 🌹 (https://sketchfab.com/Cat_heracles)",
      "license": "CC-BY-4.0 (http://creativecommons.org/licenses/by/4.0/)",
      "source": "https://sketchfab.com/3d-models/ai-but-dandy-world-e58ada64c3b148568309448227652ba7",
      "title": "ai but Dandy world"
    },
    "generator": "Sketchfab-16.62.0",
    "version": "2.0"
  },
  "bufferViews": [
    {
      "buffer": 0,
      "byteLength": 1111680,
      "name": "floatBufferViews",
      "target": 34963
    },
    {
      "buffer": 0,
      "byteLength": 459624,
      "byteOffset": 1111680,
      "byteStride": 8,
      "name": "floatBufferViews",
      "target": 34962
    },
    {
      "buffer": 0,
      "byteLength": 1378872,
      "byteOffset": 1571304,
      "byteStride": 12,
      "name": "floatBufferViews",
      "target": 34962
    }
  ],
  "buffers": [
    {
      "byteLength": 2950176,
      "uri": "scene.bin"
    }
  ],
  "images": [
    {
      "uri": "textures/Mat_1_baseColor.png"
    },
    {
      "uri": "textures/Mat_2_baseColor.png"
    }
  ],
  "materials": [
    {
      "doubleSided": true,
      "name": "Chair",
      "pbrMetallicRoughness": {
        "baseColorFactor": [
          0.08123211693338347,
          0.0015900102995328278,
          0.13307402195832121,
          1.0
        ],
        "metallicFactor": 0.0,
        "roughnessFactor": 0.6
      }
    },
    {
      "doubleSided": true,
      "name": "Mat_1",
      "pbrMetallicRoughness": {
        "baseColorTexture": {
          "index": 0
        },
        "metallicFactor": 0.0,
        "roughnessFactor": 0.6
      }
    },
    {
      "doubleSided": true,
      "name": "Mat_10",
      "pbrMetallicRoughness": {
        "baseColorFactor": [
          0.17677257314439548,
          0.08821144564101019,
          0.02409043687222512,
          1.0
        ],
        "metallicFactor": 0.0,
        "roughnessFactor": 0.6
      }
    },
    {
      "doubleSided": true,
      "name": "Mat_11",
      "pbrMetallicRoughness": {
        "baseColorFactor": [
          0.2964214745058802,
          0.00666561979401211,
          0.00666561979401211,
          1.0
        ],
        "metallicFactor": 0.0,
        "roughnessFactor": 0.6
      }
    },
    {
      "doubleSided": true,
      "name": "Mat_2",
      "pbrMetallicRoughness": {
        "baseColorTexture": {
          "index": 1
        },
        "metallicFactor": 0.0,
        "roughnessFactor": 0.6
      }
    },
    {
      "doubleSided": true,
      "name": "Mat_3",
      "pbrMetallicRoughness": {
        "baseColorFactor": [
          0.8996970529816958,
          0.558679612315744,
          0.3847643004590407,
          1.0
        ],
        "metallicFactor": 0.0,
        "roughnessFactor": 0.6
      }
    },
    {
      "doubleSided": true,
      "name": "Mat_5",
      "pbrMetallicRoughness": {
        "baseColorFactor": [
          0.9281811459859552,
          0.6973610150356225,
          0.41379651924535016,
          1.0
        ],
        "metallicFactor": 0.0,
        "roughnessFactor": 0.6
      }
    },
    {
      "doubleSided": true,
      "name": "Mat_7",
      "pbrMetallicRoughness": {
        "baseColorTexture": {
          "index": 1
        },
        "metallicFactor": 0.0,
        "roughnessFactor": 0.6
      }
    },
    {
      "doubleSided": true,
      "name": "Material",
      "pbrMetallicRoughness": {
        "baseColorFactor": [
          0.03966164385829711,
          0.03778999219171158,
          0.03778999219171158,
          1.0
        ],
        "metallicFactor": 0.0,
        "roughnessFactor": 0.6
      }
    },
    {
      "doubleSided": true,
      "name": "Table",
      "pbrMetallicRoughness": {
        "baseColorFactor": [
          0.019381149227762014,
          0.0017013356933582395,
          0.03668372446148682,
          1.0
        ],
        "metallicFactor": 0.0,
        "roughnessFactor": 0.6
      }
    }
  ],
  "meshes": [
    {
      "name": "Object_0",
      "primitives": [
        {
          "attributes": {
            "NORMAL": 1,
            "POSITION": 0,
            "TEXCOORD_0": 2
          },
          "indices": 3,
          "material": 2,
          "mode": 4
        }
      ]
    },
    {
      "name": "Object_1",
      "primitives": [
        {
          "attributes": {
            "NORMAL": 5,
            "POSITION": 4,
            "TEXCOORD_0": 6
          },
          "indices": 7,
          "material": 4,
          "mode": 4
        }
      ]
    },
    {
      "name": "Object_2",
      "primitives": [
        {
          "attributes": {
            "NORMAL": 9,
            "POSITION": 8,
            "TEXCOORD_0": 10
          },
          "indices": 11,
          "material": 8,
          "mode": 4
        }
      ]
    },
    {
      "name": "Object_3",
      "primitives": [
        {
          "attributes": {
            "NORMAL": 13,
            "POSITION": 12,
            "TEXCOORD_0": 14
          },
          "indices": 15,
          "material": 3,
          "mode": 4
        }
      ]
    },
    {
      "name": "Object_4",
      "primitives": [
        {
          "attributes": {
            "NORMAL": 17,
            "POSITION": 16,
            "TEXCOORD_0": 18
          },
          "indices": 19,
          "material": 6,
          "mode": 4
        }
      ]
    },
    {
      "name": "Object_5",
      "primitives": [
        {
          "attributes": {
            "NORMAL": 21,
            "POSITION": 20,
            "TEXCOORD_0": 22
          },
          "indices": 23,
          "material": 5,
          "mode": 4
        }
      ]
    },
    {
      "name": "Object_6",
      "primitives": [
        {
          "attributes": {
            "NORMAL": 25,
            "POSITION": 24,
            "TEXCOORD_0": 26
          },
          "indices": 27,
          "material": 7,
          "mode": 4
        }
      ]
    },
    {
      "name": "Object_7",
      "primitives": [
        {
          "attributes": {
            "NORMAL": 29,
            "POSITION": 28,
            "TEXCOORD_0": 30
          },
          "indices": 31,
          "material": 0,
          "mode": 4
        }
      ]
    },
    {
      "name": "Object_8",
      "primitives": [
        {
          "attributes": {
            "NORMAL": 33,
            "POSITION": 32,
            "TEXCOORD_0": 34
          },
          "indices": 35,
          "material": 0,
          "mode": 4
        }
      ]
    },
    {
      "name": "Object_9",
      "primitives": [
        {
          "attributes": {
            "NORMAL": 37,
            "POSITION": 36,
            "TEXCOORD_0": 38
          },
          "indices": 39,
          "material": 1,
          "mode": 4
        }
      ]
    },
    {
      "name": "Object_10",
      "primitives": [
        {
          "attributes": {
            "NORMAL": 41,
            "POSITION": 40,
            "TEXCOORD_0": 42
          },
          "indices": 43,
          "material": 1,
          "mode": 4
        }
      ]
    },
    {
      "name": "Object_11",
      "primitives": [
        {
          "attributes": {
            "NORMAL": 45,
            "POSITION": 44,
            "TEXCOORD_0": 46
          },
          "indices": 47,
          "material": 9,
          "mode": 4
        }
      ]
    },
    {
      "name": "Object_12",
      "primitives": [
        {
          "attributes": {
            "NORMAL": 49,
            "POSITION": 48,
            "TEXCOORD_0": 50
          },
          "indices": 51,
          "material": 9,
          "mode": 4
        }
      ]
    }
  ],
  "nodes": [
    {
      "children": [
        1
      ],
      "matrix": [
        1.0,
        0.0,
        0.0,
        0.0,
        0.0,
        2.220446049250313e-16,
        -1.0,
        0.0,
        0.0,
        1.0,
        2.220446049250313e-16,
        0.0,
        0.0,
        0.0,
        0.0,
        1.0
      ],
      "name": "Sketchfab_model"
    },
    {
      "children": [
        2,
        3,
        4,
        5,
        6,
        7,
        8,
        9,
        10,
        11,
        12,
        13,
        14
      ],
      "name": "KM Goob.obj.cleaner.materialmerger.gles"
    },
    {
      "mesh": 0,
      "name": "Object_2"
    },
    {
      "mesh": 1,
      "name": "Object_3"
    },
    {
      "mesh": 2,
      "name": "Object_4"
    },
    {
      "mesh": 3,
      "name": "Object_5"
    },
    {
      "mesh": 4,
      "name": "Object_6"
    },
    {
      "mesh": 5,
      "name": "Object_7"
    },
    {
      "mesh": 6,
      "name": "Object_8"
    },
    {
      "mesh": 7,
      "name": "Object_9"
    },
    {
      "mesh": 8,
      "name": "Object_10"
    },
    {
      "mesh": 9,
      "name": "Object_11"
    },
    {
      "mesh": 10,
      "name": "Object_12"
    },
    {
      "mesh": 11,
      "name": "Object_13"
    },
    {
      "mesh": 12,
      "name": "Object_14"
    }
  ],
  "samplers": [
    {
      "magFilter": 9729,
      "minFilter": 9987,
      "wrapS": 10497,
      "wrapT": 10497
    }
  ],
  "scene": 0,
  "scenes": [
    {
      "name": "Sketchfab_Scene",
      "nodes": [
        0
      ]
    }
  ],
  "textures": [
    {
      "sampler": 0,
      "source": 0
    },
    {
      "sampler": 0,
      "source": 1
    }
  ]
}
